# xmcd
#
# Track frame offsets: 
#        150
#        13997
#        27575
#        40133
#        52936
#        65074
#        77667
#        88966
#        103430
#        114099
#        126519
#        139933
#        153722
#        166945
#        180192
#        194182
#        206217
#        217823
#        230034
#        243371
#        256369
#        269395
#        281483
#        296438
#        307933
#        318658
#
# Disc length: 4423 seconds
#
# Revision: 0
# Processed by: cddbd v1.5.2PL0 Copyright (c) Steve Scherf et al.
# Submitted via: ExactAudioCopy v0.99pb5
#
DISCID=8e11451a
DTITLE=T-Bone Walker - T-Bone Walker - The Blues
DYEAR=2013
DGENRE=Blues
TTITLE0=Call It Stormy Monday
TTITLE1=T-Bone Shuffle
TTITLE2=West Side Baby
TTITLE3=Hypin' Women Blues
TTITLE4=Bobby Sox Blues
TTITLE5=Inspiration Blues
TTITLE6=Strollin' With Bones
TTITLE7=Cold, Cold Feeling
TTITLE8=Travelin' Blues
TTITLE9=Glamour Girl
TTITLE10=I'm Still In Love With You
TTITLE11=I''m Waiting For Your Call
TTITLE12=I Miss You Baby
TTITLE13=Mean Old World
TTITLE14=Plain Old Down Home Blues
TTITLE15=Tell Me What's The Reason
TTITLE16=The Hustle Is On
TTITLE17=You Don't Understand
TTITLE18=High Society 
TTITLE19=Blue Mood
TTITLE20=Love Is Just A Gamble
TTITLE21=Railroad Station Blues
TTITLE22=I Got The Blues Again
TTITLE23=Wanderin' Heart
TTITLE24=News For My Baby
TTITLE25=I'm Gonna Find My Baby
EXTD=
EXTT0=
EXTT1=
EXTT2=
EXTT3=
EXTT4=
EXTT5=
EXTT6=
EXTT7=
EXTT8=
EXTT9=
EXTT10=
EXTT11=
EXTT12=
EXTT13=
EXTT14=
EXTT15=
EXTT16=
EXTT17=
EXTT18=
EXTT19=
EXTT20=
EXTT21=
EXTT22=
EXTT23=
EXTT24=
EXTT25=
PLAYORDER=
